<mxfile host="app.diagrams.net" agent="Mozilla/5.0 (Windows NT 10.0; Win64; x64) AppleWebKit/537.36 (KHTML, like Gecko) Chrome/131.0.0.0 Safari/537.36" version="25.0.1">
  <diagram name="Page-1" id="N-vqyTNXdCHv46Zkedll">
    <mxGraphModel dx="2950" dy="1044" grid="1" gridSize="10" guides="1" tooltips="1" connect="1" arrows="1" fold="1" page="1" pageScale="1" pageWidth="850" pageHeight="1100" math="0" shadow="0">
      <root>
        <mxCell id="0" />
        <mxCell id="1" parent="0" />
        <mxCell id="445HeSzhfrMPFmDTmlA5-1" value="" style="rounded=0;whiteSpace=wrap;html=1;rotation=90;" vertex="1" parent="1">
          <mxGeometry x="-130" y="438.75" width="1020" height="449.38" as="geometry" />
        </mxCell>
        <mxCell id="445HeSzhfrMPFmDTmlA5-8" value="&lt;font style=&quot;font-size: 18px;&quot;&gt;Registration&lt;/font&gt;" style="ellipse;whiteSpace=wrap;html=1;" vertex="1" parent="1">
          <mxGeometry x="240" y="220" width="280" height="70" as="geometry" />
        </mxCell>
        <mxCell id="445HeSzhfrMPFmDTmlA5-10" value="&lt;font style=&quot;font-size: 18px;&quot;&gt;Login&lt;/font&gt;" style="ellipse;whiteSpace=wrap;html=1;" vertex="1" parent="1">
          <mxGeometry x="240" y="330" width="280" height="70" as="geometry" />
        </mxCell>
        <mxCell id="445HeSzhfrMPFmDTmlA5-11" value="&lt;font style=&quot;font-size: 18px;&quot;&gt;Payment&lt;/font&gt;" style="ellipse;whiteSpace=wrap;html=1;" vertex="1" parent="1">
          <mxGeometry x="240" y="780" width="280" height="70" as="geometry" />
        </mxCell>
        <mxCell id="445HeSzhfrMPFmDTmlA5-12" value="&lt;font style=&quot;font-size: 18px;&quot;&gt;View and select items&lt;/font&gt;" style="ellipse;whiteSpace=wrap;html=1;" vertex="1" parent="1">
          <mxGeometry x="240" y="438.75" width="280" height="70" as="geometry" />
        </mxCell>
        <mxCell id="445HeSzhfrMPFmDTmlA5-13" value="&lt;font style=&quot;font-size: 18px;&quot;&gt;Add to shopping cart&lt;/font&gt;" style="ellipse;whiteSpace=wrap;html=1;" vertex="1" parent="1">
          <mxGeometry x="240" y="560" width="280" height="70" as="geometry" />
        </mxCell>
        <mxCell id="445HeSzhfrMPFmDTmlA5-14" value="&lt;font style=&quot;font-size: 18px;&quot;&gt;Order items&lt;/font&gt;" style="ellipse;whiteSpace=wrap;html=1;" vertex="1" parent="1">
          <mxGeometry x="240" y="670" width="280" height="70" as="geometry" />
        </mxCell>
        <mxCell id="445HeSzhfrMPFmDTmlA5-15" value="&lt;font style=&quot;font-size: 18px;&quot;&gt;Review&lt;/font&gt;" style="ellipse;whiteSpace=wrap;html=1;" vertex="1" parent="1">
          <mxGeometry x="246.25" y="970" width="280" height="70" as="geometry" />
        </mxCell>
        <mxCell id="445HeSzhfrMPFmDTmlA5-16" value="&lt;font style=&quot;font-size: 18px;&quot;&gt;Online&amp;nbsp;&lt;/font&gt;" style="ellipse;whiteSpace=wrap;html=1;" vertex="1" parent="1">
          <mxGeometry x="400" y="870" width="200" height="70" as="geometry" />
        </mxCell>
        <mxCell id="445HeSzhfrMPFmDTmlA5-17" value="&lt;font style=&quot;font-size: 18px;&quot;&gt;Cash and delivery&lt;/font&gt;" style="ellipse;whiteSpace=wrap;html=1;" vertex="1" parent="1">
          <mxGeometry x="190" y="870" width="180" height="70" as="geometry" />
        </mxCell>
        <mxCell id="445HeSzhfrMPFmDTmlA5-18" value="&lt;font style=&quot;font-size: 18px;&quot;&gt;Proceed to checkout&lt;/font&gt;" style="ellipse;whiteSpace=wrap;html=1;" vertex="1" parent="1">
          <mxGeometry x="251.25" y="1060" width="280" height="70" as="geometry" />
        </mxCell>
        <mxCell id="445HeSzhfrMPFmDTmlA5-19" value="Customer" style="shape=umlActor;verticalLabelPosition=bottom;verticalAlign=top;html=1;outlineConnect=0;" vertex="1" parent="1">
          <mxGeometry x="-40" y="530" width="80" height="200" as="geometry" />
        </mxCell>
        <mxCell id="445HeSzhfrMPFmDTmlA5-21" value="Admin" style="shape=umlActor;verticalLabelPosition=bottom;verticalAlign=top;html=1;outlineConnect=0;" vertex="1" parent="1">
          <mxGeometry x="740" y="530" width="80" height="200" as="geometry" />
        </mxCell>
        <mxCell id="445HeSzhfrMPFmDTmlA5-22" value="" style="endArrow=none;html=1;rounded=0;entryX=0;entryY=0.5;entryDx=0;entryDy=0;" edge="1" parent="1" target="445HeSzhfrMPFmDTmlA5-8">
          <mxGeometry width="50" height="50" relative="1" as="geometry">
            <mxPoint x="50" y="560" as="sourcePoint" />
            <mxPoint x="430" y="670" as="targetPoint" />
          </mxGeometry>
        </mxCell>
        <mxCell id="445HeSzhfrMPFmDTmlA5-23" value="" style="endArrow=none;html=1;rounded=0;entryX=0;entryY=0.5;entryDx=0;entryDy=0;" edge="1" parent="1" target="445HeSzhfrMPFmDTmlA5-10">
          <mxGeometry width="50" height="50" relative="1" as="geometry">
            <mxPoint x="50" y="590" as="sourcePoint" />
            <mxPoint x="430" y="670" as="targetPoint" />
          </mxGeometry>
        </mxCell>
        <mxCell id="445HeSzhfrMPFmDTmlA5-24" value="" style="endArrow=none;html=1;rounded=0;entryX=0;entryY=0.5;entryDx=0;entryDy=0;" edge="1" parent="1" target="445HeSzhfrMPFmDTmlA5-12">
          <mxGeometry width="50" height="50" relative="1" as="geometry">
            <mxPoint x="60" y="620" as="sourcePoint" />
            <mxPoint x="430" y="670" as="targetPoint" />
          </mxGeometry>
        </mxCell>
        <mxCell id="445HeSzhfrMPFmDTmlA5-25" value="" style="endArrow=none;html=1;rounded=0;entryX=0;entryY=0.5;entryDx=0;entryDy=0;" edge="1" parent="1" target="445HeSzhfrMPFmDTmlA5-13">
          <mxGeometry width="50" height="50" relative="1" as="geometry">
            <mxPoint x="70" y="650" as="sourcePoint" />
            <mxPoint x="460" y="670" as="targetPoint" />
          </mxGeometry>
        </mxCell>
        <mxCell id="445HeSzhfrMPFmDTmlA5-26" value="" style="endArrow=none;html=1;rounded=0;entryX=0;entryY=0.5;entryDx=0;entryDy=0;" edge="1" parent="1" target="445HeSzhfrMPFmDTmlA5-14">
          <mxGeometry width="50" height="50" relative="1" as="geometry">
            <mxPoint x="70" y="685" as="sourcePoint" />
            <mxPoint x="460" y="670" as="targetPoint" />
          </mxGeometry>
        </mxCell>
        <mxCell id="445HeSzhfrMPFmDTmlA5-27" value="&lt;font style=&quot;font-size: 18px;&quot;&gt;Online Shopping System&lt;/font&gt;" style="text;html=1;align=center;verticalAlign=middle;whiteSpace=wrap;rounded=0;" vertex="1" parent="1">
          <mxGeometry x="260" y="170" width="240" height="30" as="geometry" />
        </mxCell>
        <mxCell id="445HeSzhfrMPFmDTmlA5-28" value="" style="endArrow=none;html=1;rounded=0;entryX=1;entryY=0.5;entryDx=0;entryDy=0;" edge="1" parent="1" source="445HeSzhfrMPFmDTmlA5-21" target="445HeSzhfrMPFmDTmlA5-8">
          <mxGeometry width="50" height="50" relative="1" as="geometry">
            <mxPoint x="420" y="540" as="sourcePoint" />
            <mxPoint x="470" y="490" as="targetPoint" />
          </mxGeometry>
        </mxCell>
        <mxCell id="445HeSzhfrMPFmDTmlA5-29" value="" style="endArrow=none;html=1;rounded=0;exitX=1;exitY=0.5;exitDx=0;exitDy=0;" edge="1" parent="1" source="445HeSzhfrMPFmDTmlA5-10">
          <mxGeometry width="50" height="50" relative="1" as="geometry">
            <mxPoint x="420" y="540" as="sourcePoint" />
            <mxPoint x="720" y="590" as="targetPoint" />
          </mxGeometry>
        </mxCell>
        <mxCell id="445HeSzhfrMPFmDTmlA5-30" value="" style="endArrow=none;html=1;rounded=0;entryX=1;entryY=0.5;entryDx=0;entryDy=0;" edge="1" parent="1" target="445HeSzhfrMPFmDTmlA5-12">
          <mxGeometry width="50" height="50" relative="1" as="geometry">
            <mxPoint x="710" y="610" as="sourcePoint" />
            <mxPoint x="470" y="490" as="targetPoint" />
          </mxGeometry>
        </mxCell>
        <mxCell id="445HeSzhfrMPFmDTmlA5-31" value="" style="endArrow=none;html=1;rounded=0;exitX=0;exitY=0.5;exitDx=0;exitDy=0;" edge="1" parent="1" source="445HeSzhfrMPFmDTmlA5-11">
          <mxGeometry width="50" height="50" relative="1" as="geometry">
            <mxPoint x="420" y="690" as="sourcePoint" />
            <mxPoint x="70" y="710" as="targetPoint" />
          </mxGeometry>
        </mxCell>
        <mxCell id="445HeSzhfrMPFmDTmlA5-32" value="" style="endArrow=none;html=1;rounded=0;exitX=0;exitY=0.5;exitDx=0;exitDy=0;" edge="1" parent="1" source="445HeSzhfrMPFmDTmlA5-15">
          <mxGeometry width="50" height="50" relative="1" as="geometry">
            <mxPoint x="420" y="870" as="sourcePoint" />
            <mxPoint x="50" y="750" as="targetPoint" />
          </mxGeometry>
        </mxCell>
        <mxCell id="445HeSzhfrMPFmDTmlA5-33" value="" style="endArrow=none;html=1;rounded=0;exitX=0.976;exitY=0.362;exitDx=0;exitDy=0;exitPerimeter=0;" edge="1" parent="1" source="445HeSzhfrMPFmDTmlA5-18">
          <mxGeometry width="50" height="50" relative="1" as="geometry">
            <mxPoint x="420" y="870" as="sourcePoint" />
            <mxPoint x="710" y="720" as="targetPoint" />
          </mxGeometry>
        </mxCell>
        <mxCell id="445HeSzhfrMPFmDTmlA5-40" value="&amp;lt;&amp;lt;include&amp;gt;&amp;gt;" style="html=1;verticalAlign=bottom;labelBackgroundColor=none;endArrow=open;endFill=0;dashed=1;rounded=0;exitX=0.134;exitY=0.503;exitDx=0;exitDy=0;exitPerimeter=0;" edge="1" parent="1" source="445HeSzhfrMPFmDTmlA5-1" target="445HeSzhfrMPFmDTmlA5-10">
          <mxGeometry x="-0.0069" width="160" relative="1" as="geometry">
            <mxPoint x="360" y="490" as="sourcePoint" />
            <mxPoint x="520" y="490" as="targetPoint" />
            <Array as="points" />
            <mxPoint as="offset" />
          </mxGeometry>
        </mxCell>
        <mxCell id="445HeSzhfrMPFmDTmlA5-42" value="&amp;lt;&amp;lt;extend&amp;gt;&amp;gt;" style="html=1;verticalAlign=bottom;labelBackgroundColor=none;endArrow=open;endFill=0;dashed=1;rounded=0;exitX=0.5;exitY=1;exitDx=0;exitDy=0;entryX=0.5;entryY=0;entryDx=0;entryDy=0;" edge="1" parent="1" source="445HeSzhfrMPFmDTmlA5-12" target="445HeSzhfrMPFmDTmlA5-13">
          <mxGeometry width="160" relative="1" as="geometry">
            <mxPoint x="360" y="490" as="sourcePoint" />
            <mxPoint x="520" y="490" as="targetPoint" />
          </mxGeometry>
        </mxCell>
        <mxCell id="445HeSzhfrMPFmDTmlA5-43" value="&amp;lt;&amp;lt;extend&amp;gt;&amp;gt;" style="html=1;verticalAlign=bottom;labelBackgroundColor=none;endArrow=open;endFill=0;dashed=1;rounded=0;exitX=0.5;exitY=1;exitDx=0;exitDy=0;entryX=0.5;entryY=0;entryDx=0;entryDy=0;" edge="1" parent="1" source="445HeSzhfrMPFmDTmlA5-13" target="445HeSzhfrMPFmDTmlA5-14">
          <mxGeometry width="160" relative="1" as="geometry">
            <mxPoint x="360" y="690" as="sourcePoint" />
            <mxPoint x="520" y="690" as="targetPoint" />
          </mxGeometry>
        </mxCell>
        <mxCell id="445HeSzhfrMPFmDTmlA5-45" value="&amp;lt;&amp;lt;include&amp;gt;&amp;gt;" style="html=1;verticalAlign=bottom;labelBackgroundColor=none;endArrow=open;endFill=0;dashed=1;rounded=0;exitX=0.5;exitY=1;exitDx=0;exitDy=0;entryX=0.5;entryY=0;entryDx=0;entryDy=0;" edge="1" parent="1" source="445HeSzhfrMPFmDTmlA5-14" target="445HeSzhfrMPFmDTmlA5-11">
          <mxGeometry width="160" relative="1" as="geometry">
            <mxPoint x="390" y="640" as="sourcePoint" />
            <mxPoint x="550" y="640" as="targetPoint" />
          </mxGeometry>
        </mxCell>
        <mxCell id="445HeSzhfrMPFmDTmlA5-46" value="" style="endArrow=block;html=1;rounded=0;align=center;verticalAlign=bottom;endFill=0;labelBackgroundColor=none;endSize=8;exitX=0.81;exitY=0.126;exitDx=0;exitDy=0;entryX=0.413;entryY=1.002;entryDx=0;entryDy=0;entryPerimeter=0;exitPerimeter=0;" edge="1" parent="1" source="445HeSzhfrMPFmDTmlA5-17" target="445HeSzhfrMPFmDTmlA5-11">
          <mxGeometry relative="1" as="geometry">
            <mxPoint x="370" y="610" as="sourcePoint" />
            <mxPoint x="530" y="610" as="targetPoint" />
          </mxGeometry>
        </mxCell>
        <mxCell id="445HeSzhfrMPFmDTmlA5-49" value="" style="endArrow=block;html=1;rounded=0;align=center;verticalAlign=bottom;endFill=0;labelBackgroundColor=none;endSize=8;exitX=0.071;exitY=0.241;exitDx=0;exitDy=0;entryX=0.536;entryY=1.015;entryDx=0;entryDy=0;entryPerimeter=0;exitPerimeter=0;" edge="1" parent="1" source="445HeSzhfrMPFmDTmlA5-16" target="445HeSzhfrMPFmDTmlA5-11">
          <mxGeometry relative="1" as="geometry">
            <mxPoint x="346" y="889" as="sourcePoint" />
            <mxPoint x="366" y="860" as="targetPoint" />
          </mxGeometry>
        </mxCell>
      </root>
    </mxGraphModel>
  </diagram>
</mxfile>
